<?xml version="1.0" encoding="utf-8"?>
<!-- Generator: Adobe Illustrator 25.4.1, SVG Export Plug-In . SVG Version: 6.00 Build 0)  -->
<svg version="1.1" id="Layer_1" xmlns="http://www.w3.org/2000/svg" xmlns:xlink="http://www.w3.org/1999/xlink" x="0px" y="0px"
	 viewBox="0 0 3000 2000" style="enable-background:new 0 0 3000 2000;" xml:space="preserve">
<style type="text/css">
	.st0{fill-rule:evenodd;clip-rule:evenodd;fill:#509C35;}
	.st1{fill:#509C35;}
</style>
<g>
	<path class="st0" d="M1343.2,1339.7c78.2,0,141.6,63.4,141.6,141.6s-63.4,141.6-141.6,141.6c-78.2,0-141.6-63.4-141.6-141.6
		S1265,1339.7,1343.2,1339.7L1343.2,1339.7z M599.6,895.3c0-7.6-6.2-13.7-13.8-13.7h-31.4c-11.3,0-21.1,4-29.1,12l-178.6,178.6
		c-8.7,8.6-2.5,23.4,9.7,23.4h229.3c7.6,0,13.8-6.1,13.8-13.7V895.3L599.6,895.3z M502.7,1339.7c78.2,0,141.6,63.4,141.6,141.6
		s-63.4,141.6-141.6,141.6c-78.2,0-141.6-63.4-141.6-141.6S424.5,1339.7,502.7,1339.7L502.7,1339.7z M1641.1,666.9
		c22.6,0,41.2,18.5,41.2,41.2v51.7h94.4c16.9,0,30.8,13.8,30.8,30.8c0,16.9-13.8,30.8-30.8,30.8c-171.5,0-342.9,0-514.4,0
		c-16.9,0-30.8,13.9-30.8,30.8c0,16.9,13.9,30.8,30.8,30.8c217.2,0,434.5,0,651.7,0c16.9,0,30.8,13.8,30.8,30.8
		c0,16.9-13.9,30.8-30.8,30.8c-249.3,0-498.5,0-747.7,0c-16.9,0-30.8,13.9-30.8,30.8c0,16.9,13.9,30.8,30.8,30.8h706.5
		c16.9,0,30.8,13.8,30.8,30.8c0,16.9-13.9,30.8-30.8,30.8c-185.2,0-370.4,0-555.6,0c-16.9,0-30.8,13.9-30.8,30.8
		c0,16.9,13.8,30.8,30.8,30.8c221.8,0,443.6,0,665.4,0c16.9,0,30.8,13.8,30.8,30.8c0,16.9-13.9,30.8-30.8,30.8h-300.3v229
		c0,22.6-18.5,41.2-41.2,41.2h-115.5c-10.2-91.7-87.9-163.1-182.4-163.1c-94.4,0-172.2,71.4-182.4,163.1H685.1
		c-10.2-91.7-87.9-163.1-182.4-163.1c-94.4,0-172.2,71.4-182.4,163.1h-87.7c-22.7,0-41.2-18.5-41.2-41.2v-287.1
		c0-11.3,4-21.1,12-29.1l292.1-292.1c8-8,17.8-12,29.1-12h206.5c15.1,0,27.5,12.3,27.5,27.4v364h27.5V708.1
		c0-22.6,18.5-41.2,41.2-41.2H1641.1L1641.1,666.9z"/>
</g>
<g>
	<path class="st1" d="M2360.4,655.8v-20.5c0-5.7-4.6-10.2-10.2-10.2s-10.2,4.6-10.2,10.2v20.5c0,5.7,4.6,10.2,10.2,10.2
		S2360.4,661.4,2360.4,655.8z"/>
	<path class="st1" d="M2339.9,1044.8v20.5c0,5.7,4.6,10.2,10.2,10.2s10.2-4.6,10.2-10.2v-20.5c0-5.7-4.6-10.2-10.2-10.2
		S2339.9,1039.1,2339.9,1044.8z"/>
	<path class="st1" d="M2534.4,850.3c-5.7,0-10.2,4.6-10.2,10.2s4.6,10.2,10.2,10.2h20.5c5.7,0,10.2-4.6,10.2-10.2
		s-4.6-10.2-10.2-10.2H2534.4z"/>
	<path class="st1" d="M2124.9,850.3c-5.7,0-10.2,4.6-10.2,10.2s4.6,10.2,10.2,10.2h20.5c5.7,0,10.2-4.6,10.2-10.2
		s-4.6-10.2-10.2-10.2H2124.9z"/>
	<path class="st1" d="M2570.9,767.5c9.3,25.9,14.6,53.7,14.6,82.8c0,135.5-110.2,245.7-245.7,245.7s-245.7-110.2-245.7-245.7
		s110.2-245.7,245.7-245.7c61.3,0,117.2,22.7,160.3,59.9l57.9-57.9c-58-52-134.4-83.9-218.2-83.9c-180.6,0-327.6,147-327.6,327.6
		s147,327.6,327.6,327.6c180.6,0,327.6-147,327.6-327.6c0-52.1-12.5-101.2-34.3-145L2570.9,767.5z"/>
	<path class="st1" d="M2237,750.9c-2-2-4.6-3-7.2-3c-2.6,0-5.2,1-7.2,3l-43.4,43.4c-4,4-4,10.5,0,14.5l131.8,131.8
		c7.7,7.7,18,12,29,12s21.2-4.3,29-12l296.9-296.9c4-4,4-10.5,0-14.5l-43.4-43.4c-2-2-4.6-3-7.2-3c-2.6,0-5.2,1-7.2,3l-267.9,267.9
		L2237,750.9z"/>
</g>
<g>
</g>
<g>
</g>
<g>
</g>
<g>
</g>
<g>
</g>
</svg>
