<?xml version="1.0" encoding="utf-8"?>
<!-- Generator: Adobe Illustrator 28.2.0, SVG Export Plug-In . SVG Version: 6.00 Build 0)  -->
<svg version="1.1" id="Layer_1" xmlns="http://www.w3.org/2000/svg" xmlns:xlink="http://www.w3.org/1999/xlink" x="0px" y="0px"
	 viewBox="0 0 771.6 236.7" style="enable-background:new 0 0 771.6 236.7;" xml:space="preserve">
<style type="text/css">
	.st0{fill:none;}
	.st1{fill:#F7F5F9;}
	.st2{fill:#F7F5FA;}
</style>
<g>
	<polygon class="st0" points="634.7,311.1 772.7,311.1 772.7,311.1 	"/>
	<g>
		<path class="st1" d="M7.7,88l23.1-1.5c0.5,3.8,1.5,6.6,3.1,8.6c2.5,3.2,6.1,4.8,10.7,4.8c3.5,0,6.1-0.8,8-2.4s2.8-3.5,2.8-5.7
			c0-2-0.9-3.9-2.7-5.5s-5.9-3.1-12.5-4.6c-10.7-2.4-18.3-5.6-22.8-9.6c-4.6-4-6.9-9-6.9-15.2c0-4,1.2-7.9,3.5-11.5
			c2.3-3.6,5.9-6.4,10.6-8.5c4.7-2.1,11.2-3.1,19.4-3.1c10.1,0,17.7,1.9,23,5.6s8.4,9.7,9.4,17.9l-22.9,1.3
			c-0.6-3.5-1.9-6.1-3.8-7.7c-2-1.6-4.6-2.4-8.1-2.4c-2.8,0-5,0.6-6.4,1.8c-1.4,1.2-2.1,2.7-2.1,4.4c0,1.3,0.6,2.4,1.8,3.4
			c1.1,1,3.9,2,8.2,2.9c10.6,2.3,18.3,4.6,22.9,7c4.6,2.3,7.9,5.3,10,8.7c2.1,3.6,3.1,7.5,3.1,11.8c0,5-1.4,9.7-4.2,14
			c-2.8,4.3-6.7,7.5-11.7,9.7s-11.3,3.3-19,3.3c-13.4,0-22.7-2.6-27.8-7.7S8.4,96,7.7,88z"/>
		<path class="st1" d="M153.3,91h-43.8c0.4,3.5,1.3,6.1,2.8,7.8c2.1,2.5,4.9,3.7,8.3,3.7c2.1,0,4.2-0.5,6.1-1.6
			c1.2-0.7,2.5-1.9,3.8-3.6l21.5,2c-3.3,5.7-7.3,9.8-11.9,12.3c-4.7,2.5-11.3,3.7-20,3.7c-7.6,0-13.5-1.1-17.8-3.2
			s-7.9-5.5-10.8-10.2c-2.8-4.6-4.3-10.1-4.3-16.4c0-8.9,2.9-16.1,8.6-21.6s13.6-8.3,23.7-8.3c8.2,0,14.6,1.2,19.3,3.7
			s8.3,6.1,10.8,10.7c2.5,4.7,3.7,10.8,3.7,18.3L153.3,91L153.3,91z M131,80.5c-0.4-4.2-1.6-7.3-3.4-9.1c-1.8-1.8-4.3-2.7-7.3-2.7
			c-3.5,0-6.2,1.4-8.3,4.1c-1.3,1.7-2.2,4.3-2.5,7.7H131z"/>
		<path class="st1" d="M226.6,91h-43.8c0.4,3.5,1.3,6.1,2.8,7.8c2.1,2.5,4.9,3.7,8.3,3.7c2.1,0,4.2-0.5,6.1-1.6
			c1.2-0.7,2.5-1.9,3.8-3.6l21.5,2c-3.3,5.7-7.3,9.8-11.9,12.3c-4.7,2.5-11.3,3.7-20,3.7c-7.6,0-13.5-1.1-17.8-3.2
			s-7.9-5.5-10.8-10.2c-2.8-4.6-4.3-10.1-4.3-16.4c0-8.9,2.9-16.1,8.6-21.6c5.7-5.5,13.6-8.3,23.7-8.3c8.2,0,14.6,1.2,19.3,3.7
			s8.3,6.1,10.8,10.7c2.5,4.7,3.7,10.8,3.7,18.3L226.6,91L226.6,91z M204.4,80.5c-0.4-4.2-1.6-7.3-3.4-9.1c-1.8-1.8-4.3-2.7-7.3-2.7
			c-3.5,0-6.2,1.4-8.3,4.1c-1.3,1.7-2.2,4.3-2.5,7.7H204.4z"/>
		<path class="st1" d="M263,35.4v21.7h12v16h-12v20.2c0,2.4,0.2,4,0.7,4.8c0.7,1.2,2,1.8,3.8,1.8c1.6,0,3.9-0.5,6.8-1.4l1.6,15.1
			c-5.4,1.2-10.5,1.8-15.1,1.8c-5.4,0-9.5-0.7-12-2.1c-2.6-1.4-4.5-3.5-5.7-6.4c-1.4-2.8-2-7.4-2-13.8v-20h-8v-16h8.1V46.6L263,35.4
			z"/>
		<path class="st1" d="M285.7,57.1h20.5v9.3c2-4,4-6.8,6.1-8.4c2.1-1.5,4.7-2.3,7.8-2.3c3.2,0,6.7,1,10.6,3l-6.8,15.6
			c-2.6-1.1-4.6-1.6-6.1-1.6c-2.9,0-5.1,1.2-6.7,3.5c-2.3,3.3-3.4,9.6-3.4,18.7v19.2h-22V57.1z"/>
		<path class="st1" d="M398.1,114.1h-20.4v-9.2c-3,3.8-6.1,6.5-9.2,8.1s-6.9,2.4-11.4,2.4c-6,0-10.7-1.8-14.2-5.4
			c-3.4-3.6-5.1-9.1-5.1-16.6V57.1h22v31.4c0,3.6,0.7,6.1,2,7.6s3.2,2.3,5.6,2.3c2.6,0,4.8-1,6.4-3c1.7-2,2.5-5.6,2.5-10.8V57.1
			h21.8V114.1z"/>
		<polygon class="st1" points="412.8,114.1 412.8,35.4 423.2,35.4 423.2,104.8 462,104.8 462,114.1 		"/>
		<path class="st1" d="M473.2,46.5V35.4h9.7v11.1H473.2z M473.2,114.1v-57h9.7v57H473.2z"/>
		<path class="st1" d="M497.6,114.1v-57h8.6v8c1.8-2.8,4.2-5,7.1-6.7c3-1.7,6.4-2.6,10.2-2.6c4.2,0,7.7,0.9,10.4,2.6
			c2.7,1.8,4.6,4.2,5.7,7.4c4.5-6.7,10.4-10,17.6-10c5.7,0,10,1.6,13.1,4.7c3,3.1,4.6,8,4.6,14.5v39.1h-9.6V78.2
			c0-3.9-0.3-6.7-0.9-8.4c-0.6-1.7-1.8-3.1-3.4-4.1c-1.6-1-3.6-1.6-5.8-1.6c-4,0-7.3,1.3-10,4c-2.7,2.7-4,6.9-4,12.8v33.2h-9.7V77
			c0-4.3-0.8-7.5-2.4-9.7c-1.6-2.1-4.2-3.2-7.7-3.2c-2.7,0-5.2,0.7-7.5,2.1c-2.3,1.4-4,3.5-5,6.3c-1,2.8-1.6,6.7-1.6,11.9v29.7
			H497.6z"/>
		<path class="st1" d="M589.3,46.5V35.4h9.7v11.1H589.3z M589.3,114.1v-57h9.7v57H589.3z"/>
		<path class="st1" d="M634.8,105.4l1.4,8.5c-2.7,0.6-5.2,0.9-7.3,0.9c-3.5,0-6.2-0.6-8.2-1.7s-3.3-2.6-4.1-4.4s-1.2-5.6-1.2-11.4
			V64.6h-7.1v-7.5h7.1V42.9l9.7-5.8v20h9.7v7.5h-9.7V98c0,2.8,0.2,4.5,0.5,5.3s0.9,1.4,1.7,1.9s1.9,0.7,3.3,0.7
			C631.6,105.8,633,105.7,634.8,105.4z"/>
		<path class="st1" d="M683.3,95.7l10,1.2c-1.6,5.8-4.5,10.4-8.8,13.6s-9.7,4.8-16.3,4.8c-8.3,0-15-2.6-19.8-7.7
			c-4.9-5.1-7.3-12.3-7.3-21.6c0-9.6,2.5-17,7.4-22.3s11.4-7.9,19.2-7.9c7.6,0,13.9,2.6,18.7,7.8s7.3,12.5,7.3,21.9
			c0,0.6,0,1.4-0.1,2.6h-42.5c0.4,6.3,2.1,11.1,5.3,14.4s7.2,5,11.9,5c3.5,0,6.6-0.9,9.1-2.8C679.8,102.8,681.8,99.8,683.3,95.7z
			 M651.5,80.1h31.9c-0.4-4.8-1.6-8.4-3.7-10.8c-3.1-3.7-7.1-5.6-12-5.6c-4.4,0-8.2,1.5-11.2,4.5C653.5,71.1,651.9,75.1,651.5,80.1z
			"/>
		<path class="st1" d="M742.4,114.1v-7.2c-3.6,5.7-8.9,8.5-16,8.5c-4.5,0-8.7-1.3-12.5-3.8s-6.8-6-8.9-10.5
			c-2.1-4.5-3.1-9.7-3.1-15.5c0-5.7,0.9-10.9,2.8-15.5c1.9-4.6,4.7-8.2,8.5-10.7s8-3.7,12.7-3.7c3.4,0,6.5,0.7,9.2,2.2
			s4.9,3.3,6.6,5.7V35.4h9.6v78.7H742.4z M711.9,85.6c0,7.3,1.5,12.8,4.6,16.4s6.7,5.4,10.9,5.4s7.8-1.7,10.8-5.2s4.4-8.7,4.4-15.8
			c0-7.8-1.5-13.5-4.5-17.2c-3-3.7-6.7-5.5-11.1-5.5c-4.3,0-7.9,1.8-10.8,5.3C713.3,72.5,711.9,78.1,711.9,85.6z"/>
	</g>
	<g>
		<path class="st2" d="M43.9,194.9c0,0.2,0,0.4,0,0.6c0,0.2-0.1,0.4-0.1,0.6c-0.1,0.2-0.1,0.4-0.2,0.5c-0.1,0.2-0.2,0.3-0.3,0.5
			c-0.1,0.1-0.2,0.2-0.3,0.3c-0.1,0.1-0.3,0.1-0.4,0.1c-0.2,0-0.5-0.1-0.8-0.2s-0.9-0.3-1.4-0.6s-1.2-0.6-1.9-1
			c-0.7-0.4-1.4-0.9-2.2-1.4c-0.8-0.6-1.6-1.2-2.4-1.9c-0.8-0.7-1.6-1.5-2.4-2.3c-1.5,0.9-3.1,1.5-4.8,1.9c-1.7,0.4-3.7,0.6-5.8,0.6
			c-2.4,0-4.4-0.3-6.2-1c-1.8-0.6-3.2-1.6-4.4-2.8c-1.2-1.2-2-2.7-2.6-4.5c-0.6-1.8-0.9-3.8-0.9-6c0-1.8,0.2-3.7,0.5-5.8
			c0.3-2.1,0.8-4.2,1.5-6.3c0.7-2.1,1.6-4.2,2.8-6.1c1.2-2,2.6-3.7,4.3-5.3c1.7-1.5,3.7-2.8,6-3.7c2.3-0.9,4.9-1.4,7.9-1.4
			c2.3,0,4.4,0.3,6.1,1c1.8,0.7,3.2,1.6,4.4,2.9c1.2,1.2,2,2.8,2.6,4.6c0.6,1.8,0.9,3.8,0.9,6.1c0,1-0.1,2.1-0.2,3.4
			c-0.1,1.2-0.3,2.6-0.6,3.9c-0.3,1.4-0.6,2.8-1.1,4.2c-0.5,1.4-1,2.8-1.7,4.2c-0.7,1.4-1.4,2.7-2.4,4c-0.9,1.3-2,2.5-3.2,3.6
			c1.3,1.2,2.5,2.2,3.5,2.9c1.1,0.7,2,1.3,2.7,1.8s1.4,0.7,1.9,1c0.5,0.2,0.8,0.4,0.9,0.5c0.1,0.1,0.2,0.3,0.3,0.4
			C43.9,194.4,43.9,194.6,43.9,194.9z M39.3,164.6c0-1.6-0.2-3.1-0.5-4.5c-0.4-1.4-1-2.5-1.8-3.5c-0.8-1-1.9-1.8-3.2-2.3
			c-1.3-0.6-3-0.8-4.9-0.8c-2.4,0-4.6,0.4-6.4,1.3c-1.8,0.9-3.4,2-4.7,3.4c-1.3,1.4-2.4,3-3.3,4.8c-0.9,1.8-1.6,3.6-2.1,5.4
			c-0.5,1.8-0.9,3.6-1.1,5.3c-0.2,1.7-0.3,3.1-0.3,4.3c0,1.6,0.2,3.1,0.5,4.5c0.4,1.3,1,2.5,1.8,3.5c0.8,1,1.9,1.7,3.3,2.3
			c1.3,0.5,3,0.8,4.9,0.8c2.4,0,4.5-0.4,6.3-1.3c1.8-0.9,3.4-2,4.7-3.4c1.3-1.4,2.4-3,3.3-4.8c0.9-1.8,1.6-3.6,2.1-5.4
			c0.5-1.8,0.9-3.6,1.1-5.3C39.2,167.4,39.3,165.9,39.3,164.6z"/>
		<path class="st2" d="M71.2,191.5c0,0.1-0.1,0.2-0.1,0.4c-0.1,0.1-0.2,0.2-0.3,0.3c-0.2,0.1-0.3,0.1-0.6,0.2
			c-0.2,0-0.5,0.1-0.8,0.1s-0.6,0-0.8-0.1c-0.2,0-0.4-0.1-0.5-0.2c-0.1-0.1-0.2-0.2-0.2-0.3c0-0.1,0-0.2,0-0.4l1.1-5.9
			c-0.3,0.7-0.8,1.5-1.5,2.3c-0.7,0.8-1.6,1.6-2.6,2.3c-1,0.7-2.1,1.3-3.4,1.8c-1.2,0.5-2.5,0.7-3.7,0.7c-1.4,0-2.6-0.2-3.6-0.6
			c-1-0.4-1.8-0.9-2.4-1.6c-0.6-0.7-1-1.5-1.3-2.4c-0.3-0.9-0.4-2-0.4-3.1c0-0.7,0-1.4,0.1-2.1s0.2-1.5,0.4-2.2l3.6-18.3
			c0-0.1,0.1-0.2,0.2-0.4c0.1-0.1,0.2-0.2,0.4-0.3s0.4-0.1,0.6-0.2s0.6,0,0.9,0c0.4,0,0.7,0,0.9,0s0.4,0.1,0.5,0.2s0.2,0.2,0.3,0.3
			c0,0.1,0.1,0.2,0,0.4l-3.6,18.3c-0.1,0.6-0.2,1.3-0.3,1.9c-0.1,0.7-0.1,1.3-0.1,2c0,0.7,0.1,1.4,0.2,1.9c0.1,0.6,0.4,1.1,0.7,1.5
			c0.3,0.4,0.8,0.8,1.3,1c0.5,0.2,1.2,0.4,1.9,0.4c1.3,0,2.6-0.3,3.9-1c1.3-0.7,2.5-1.7,3.7-2.9c1.1-1.2,2.1-2.7,3-4.5
			c0.9-1.7,1.5-3.6,1.9-5.7l2.6-13c0-0.1,0.1-0.2,0.2-0.4c0.1-0.1,0.2-0.2,0.4-0.3c0.2-0.1,0.4-0.1,0.6-0.2s0.6,0,0.9,0
			c0.4,0,0.7,0,0.9,0s0.4,0.1,0.5,0.2s0.2,0.2,0.2,0.3c0,0.1,0,0.2,0,0.4L71.2,191.5z"/>
		<path class="st2" d="M104.6,191.5c-0.1,0.3-0.2,0.5-0.5,0.6c-0.3,0.1-0.8,0.2-1.4,0.2c-0.3,0-0.6,0-0.8,0c-0.2,0-0.4-0.1-0.5-0.1
			s-0.2-0.2-0.3-0.3c0-0.1,0-0.2,0-0.4l1.2-6c-0.3,0.7-0.8,1.5-1.5,2.3c-0.7,0.8-1.6,1.6-2.6,2.3c-1,0.7-2.2,1.3-3.4,1.8
			c-1.2,0.5-2.5,0.7-3.8,0.7c-1.7,0-3.2-0.3-4.3-0.9c-1.1-0.6-2-1.4-2.6-2.4s-1.1-2.1-1.3-3.3c-0.2-1.2-0.4-2.4-0.4-3.7
			c0-1.1,0.1-2.4,0.3-3.9c0.2-1.5,0.6-3,1.1-4.6c0.5-1.6,1.1-3.1,1.9-4.7c0.8-1.5,1.7-2.9,2.9-4.1c1.1-1.2,2.4-2.2,3.9-2.9
			c1.5-0.7,3.2-1.1,5.1-1.1c2,0,3.7,0.4,5,1.2c1.4,0.8,2.6,1.8,3.7,3.2l0.7-3.2c0.1-0.3,0.3-0.5,0.6-0.6s0.8-0.2,1.4-0.2
			c0.3,0,0.6,0,0.8,0s0.4,0.1,0.5,0.2c0.1,0.1,0.2,0.2,0.2,0.3c0,0.1,0,0.2,0,0.4L104.6,191.5z M105.3,169.4
			c-1.2-1.7-2.4-2.9-3.7-3.7c-1.3-0.8-2.8-1.2-4.4-1.2c-1.3,0-2.5,0.3-3.5,0.9c-1,0.6-2,1.4-2.8,2.4c-0.8,1-1.5,2.1-2,3.4
			c-0.6,1.3-1,2.6-1.4,3.9c-0.4,1.3-0.6,2.6-0.8,3.9c-0.2,1.3-0.3,2.4-0.3,3.4c0,0.8,0.1,1.6,0.2,2.5c0.1,0.8,0.4,1.6,0.8,2.3
			c0.4,0.7,0.9,1.3,1.6,1.7c0.7,0.4,1.5,0.7,2.6,0.7c1.3,0,2.6-0.3,3.9-1c1.3-0.7,2.5-1.7,3.7-2.9c1.1-1.3,2.1-2.7,3-4.5
			c0.9-1.7,1.5-3.6,1.9-5.7L105.3,169.4z"/>
		<path class="st2" d="M119.3,191.5c0,0.1-0.1,0.2-0.2,0.4s-0.2,0.2-0.4,0.3s-0.4,0.1-0.6,0.2s-0.6,0.1-0.9,0.1
			c-0.4,0-0.7,0-0.9-0.1c-0.2,0-0.4-0.1-0.5-0.2s-0.2-0.2-0.3-0.3c0-0.1,0-0.2,0-0.4l8.7-43.4c0-0.1,0.1-0.2,0.1-0.4
			c0.1-0.1,0.2-0.2,0.4-0.3s0.4-0.1,0.6-0.2s0.6,0,1,0c0.4,0,0.7,0,0.9,0s0.4,0.1,0.5,0.2s0.2,0.2,0.2,0.3c0,0.1,0,0.2,0,0.4
			L119.3,191.5z"/>
		<path class="st2" d="M133.8,191.5c0,0.1-0.1,0.2-0.2,0.4s-0.2,0.2-0.4,0.3s-0.4,0.1-0.6,0.2s-0.6,0.1-0.9,0.1
			c-0.4,0-0.7,0-0.9-0.1c-0.2,0-0.4-0.1-0.5-0.2s-0.2-0.2-0.3-0.3c0-0.1,0-0.2,0-0.4l5.8-29.2c0-0.1,0.1-0.2,0.1-0.4
			c0.1-0.1,0.2-0.2,0.4-0.3s0.4-0.1,0.6-0.2s0.6,0,1,0c0.4,0,0.7,0,0.9,0s0.4,0.1,0.5,0.2s0.2,0.2,0.2,0.3c0,0.1,0,0.2,0,0.4
			L133.8,191.5z M142.2,152.6c-0.1,0.5-0.2,0.9-0.3,1.2c-0.1,0.3-0.3,0.6-0.6,0.8c-0.2,0.2-0.5,0.3-0.9,0.4
			c-0.3,0.1-0.8,0.1-1.3,0.1s-0.9,0-1.2-0.1c-0.3-0.1-0.5-0.2-0.7-0.4c-0.1-0.2-0.2-0.5-0.2-0.8c0-0.3,0-0.7,0.1-1.2
			c0.1-0.5,0.2-0.9,0.4-1.2c0.1-0.3,0.3-0.6,0.6-0.8c0.2-0.2,0.5-0.4,0.9-0.5c0.3-0.1,0.8-0.1,1.3-0.1c0.5,0,0.9,0,1.2,0.1
			s0.5,0.2,0.7,0.5c0.1,0.2,0.2,0.5,0.2,0.8C142.3,151.7,142.3,152.1,142.2,152.6z"/>
		<path class="st2" d="M164.3,162.7c0,0.2,0,0.3,0,0.5c0,0.2-0.1,0.3-0.1,0.5c-0.1,0.2-0.1,0.3-0.2,0.5c-0.1,0.2-0.2,0.3-0.3,0.4
			s-0.2,0.2-0.3,0.3s-0.3,0.1-0.4,0.1h-8.1l-3.5,17.6c-0.1,0.5-0.2,1.1-0.2,1.7c-0.1,0.6-0.1,1.2-0.1,1.6c0,1.2,0.2,2.1,0.7,2.7
			c0.5,0.6,1.3,0.9,2.4,0.9c0.6,0,1.1-0.1,1.6-0.2s0.9-0.2,1.2-0.4c0.3-0.1,0.6-0.2,0.9-0.4s0.5-0.2,0.6-0.2s0.3,0.1,0.4,0.2
			s0.1,0.3,0.1,0.6c0,0.2,0,0.4-0.1,0.7c0,0.2-0.1,0.5-0.2,0.7s-0.1,0.4-0.2,0.6s-0.2,0.3-0.3,0.5c-0.2,0.2-0.4,0.3-0.7,0.4
			c-0.3,0.1-0.7,0.2-1.1,0.4s-0.9,0.2-1.3,0.3c-0.5,0.1-0.9,0.1-1.3,0.1c-1.2,0-2.2-0.1-3-0.4c-0.8-0.2-1.5-0.6-2.1-1.2
			s-1-1.2-1.2-2c-0.3-0.8-0.4-1.7-0.4-2.8c0-0.3,0-0.5,0-0.9c0-0.3,0.1-0.6,0.1-1c0.1-0.3,0.1-0.7,0.2-1c0.1-0.3,0.1-0.7,0.2-1
			l3.5-17.6h-4.3c-0.2,0-0.4-0.1-0.5-0.2c-0.1-0.1-0.2-0.4-0.2-0.7c0-0.3,0-0.6,0.1-0.8s0.1-0.5,0.2-0.8s0.2-0.4,0.4-0.5
			c0.2-0.1,0.4-0.2,0.6-0.2h4.3l1.4-7.2c0-0.1,0.1-0.2,0.2-0.4s0.2-0.2,0.4-0.3c0.2-0.1,0.4-0.1,0.6-0.2c0.2,0,0.6,0,1,0
			c0.4,0,0.7,0,0.9,0c0.2,0,0.4,0.1,0.5,0.2c0.1,0.1,0.2,0.2,0.2,0.3s0,0.2,0,0.4l-1.4,7.2h8.1c0.3,0,0.5,0.1,0.6,0.4
			C164.3,162.3,164.3,162.5,164.3,162.7z"/>
		<path class="st2" d="M192.6,162.1c0,0.2,0,0.4-0.1,0.6c0,0.2-0.1,0.4-0.2,0.5c-0.7,1.9-1.5,4-2.3,6.1c-0.8,2.1-1.8,4.4-2.9,6.7
			c-1.1,2.3-2.5,4.8-4,7.4c-1.5,2.6-3.4,5.3-5.6,8.2l-8.6,11.5c-0.1,0.1-0.2,0.2-0.4,0.3s-0.3,0.2-0.5,0.3s-0.4,0.1-0.7,0.2
			c-0.3,0-0.6,0.1-1,0.1c-0.4,0-0.7,0-1-0.1c-0.3,0-0.5-0.1-0.6-0.2c-0.2-0.1-0.2-0.3-0.2-0.5c0-0.2,0.1-0.4,0.3-0.7l8.2-10.3
			l-4.8-28.7c0-0.3-0.1-0.5-0.1-0.6s0-0.3,0-0.4c0-0.2,0-0.3,0.1-0.4c0.1-0.1,0.1-0.2,0.3-0.3c0.1-0.1,0.3-0.1,0.6-0.1
			c0.2,0,0.6,0,0.9,0c0.4,0,0.7,0,1,0c0.2,0,0.4,0.1,0.6,0.1c0.1,0.1,0.2,0.2,0.3,0.3s0.1,0.2,0.1,0.4L176,188h0.1
			c1.5-2,2.8-4.1,4-6.2c1.2-2.1,2.3-4.2,3.3-6.3c1-2.1,1.9-4.3,2.7-6.5c0.8-2.2,1.6-4.4,2.4-6.6c0-0.1,0.1-0.3,0.2-0.4
			c0.1-0.1,0.2-0.2,0.4-0.3s0.4-0.1,0.7-0.1s0.6,0,1,0c0.7,0,1.2,0.1,1.4,0.2C192.5,161.8,192.6,161.9,192.6,162.1z"/>
		<path class="st2" d="M197.2,187.5c0,1-0.2,2.1-0.7,3.1c-0.5,1.1-1.2,2.1-2.1,3.2l-5.9,6.9c-0.2,0.3-0.5,0.5-0.9,0.6
			c-0.4,0.1-0.9,0.2-1.5,0.2c-0.3,0-0.5,0-0.6-0.1s-0.3-0.1-0.3-0.2c-0.1-0.1-0.1-0.2,0-0.3c0-0.1,0.1-0.3,0.2-0.5l6.3-8.9l0.6-3.3
			c0.1-0.5,0.2-0.9,0.3-1.1c0.1-0.3,0.3-0.5,0.5-0.7c0.2-0.1,0.5-0.3,0.8-0.3s0.7-0.1,1.2-0.1c0.4,0,0.7,0,1,0.1
			c0.3,0,0.5,0.1,0.6,0.2c0.2,0.1,0.3,0.3,0.3,0.4S197.2,187.2,197.2,187.5z"/>
		<path class="st2" d="M226.4,191.5c0,0.1-0.1,0.2-0.2,0.4c-0.1,0.1-0.2,0.2-0.4,0.3s-0.4,0.1-0.6,0.2c-0.3,0-0.6,0.1-0.9,0.1
			c-0.4,0-0.7,0-1-0.1s-0.4-0.1-0.6-0.2c-0.1-0.1-0.2-0.2-0.3-0.3c0-0.1,0-0.2,0-0.4l8.1-40.4c0-0.1,0.1-0.2,0.2-0.4
			s0.2-0.2,0.4-0.3c0.2-0.1,0.4-0.1,0.6-0.2s0.6-0.1,0.9-0.1c0.4,0,0.7,0,0.9,0.1c0.2,0,0.4,0.1,0.6,0.2c0.1,0.1,0.2,0.2,0.3,0.3
			c0,0.1,0.1,0.2,0,0.4L226.4,191.5z"/>
		<path class="st2" d="M264.8,168.8c0,0.8,0,1.5-0.1,2.2c-0.1,0.7-0.2,1.5-0.4,2.2l-3.6,18.3c0,0.1-0.1,0.2-0.2,0.4
			c-0.1,0.1-0.2,0.2-0.4,0.3s-0.4,0.1-0.6,0.2c-0.2,0-0.6,0.1-1,0.1c-0.4,0-0.7,0-0.9-0.1c-0.2,0-0.4-0.1-0.5-0.2s-0.2-0.2-0.3-0.3
			c0-0.1-0.1-0.2,0-0.4l3.7-18.3c0.1-0.8,0.3-1.5,0.3-2.1c0.1-0.7,0.1-1.2,0.1-1.7c0-1.5-0.3-2.7-1-3.6c-0.6-0.9-1.7-1.4-3.2-1.4
			c-1.3,0-2.6,0.4-3.9,1.1c-1.3,0.7-2.5,1.7-3.7,2.9c-1.1,1.3-2.1,2.8-3,4.5s-1.5,3.6-1.9,5.7l-2.5,12.9c0,0.1-0.1,0.2-0.2,0.4
			s-0.2,0.2-0.4,0.3s-0.4,0.1-0.6,0.2s-0.6,0.1-0.9,0.1c-0.4,0-0.7,0-0.9-0.1c-0.2,0-0.4-0.1-0.5-0.2s-0.2-0.2-0.3-0.3
			c0-0.1,0-0.2,0-0.4l5.9-29.2c0-0.1,0.1-0.2,0.1-0.4c0.1-0.1,0.2-0.2,0.3-0.3s0.3-0.1,0.6-0.2c0.2,0,0.5,0,0.8,0s0.6,0,0.8,0
			s0.4,0.1,0.5,0.2c0.1,0.1,0.2,0.2,0.2,0.3c0,0.1,0,0.2,0,0.4l-1.2,6c0.3-0.7,0.8-1.5,1.5-2.3c0.7-0.8,1.6-1.6,2.6-2.3
			c1-0.7,2.2-1.3,3.4-1.8c1.2-0.5,2.5-0.7,3.9-0.7c1.4,0,2.6,0.2,3.5,0.6c0.9,0.4,1.7,1,2.3,1.7c0.6,0.7,1,1.5,1.2,2.4
			C264.7,166.9,264.8,167.8,264.8,168.8z"/>
		<path class="st2" d="M298.3,168.8c0,0.8,0,1.5-0.1,2.2c-0.1,0.7-0.2,1.5-0.4,2.2l-3.6,18.3c0,0.1-0.1,0.2-0.2,0.4
			c-0.1,0.1-0.2,0.2-0.4,0.3s-0.4,0.1-0.6,0.2c-0.2,0-0.6,0.1-1,0.1c-0.4,0-0.7,0-0.9-0.1c-0.2,0-0.4-0.1-0.5-0.2s-0.2-0.2-0.3-0.3
			c0-0.1-0.1-0.2,0-0.4l3.7-18.3c0.1-0.8,0.3-1.5,0.3-2.1c0.1-0.7,0.1-1.2,0.1-1.7c0-1.5-0.3-2.7-1-3.6c-0.6-0.9-1.7-1.4-3.2-1.4
			c-1.3,0-2.6,0.4-3.9,1.1c-1.3,0.7-2.5,1.7-3.7,2.9c-1.1,1.3-2.1,2.8-3,4.5s-1.5,3.6-1.9,5.7l-2.5,12.9c0,0.1-0.1,0.2-0.2,0.4
			s-0.2,0.2-0.4,0.3s-0.4,0.1-0.6,0.2s-0.6,0.1-0.9,0.1c-0.4,0-0.7,0-0.9-0.1c-0.2,0-0.4-0.1-0.5-0.2s-0.2-0.2-0.3-0.3
			c0-0.1,0-0.2,0-0.4l5.9-29.2c0-0.1,0.1-0.2,0.1-0.4c0.1-0.1,0.2-0.2,0.3-0.3s0.3-0.1,0.6-0.2c0.2,0,0.5,0,0.8,0s0.6,0,0.8,0
			s0.4,0.1,0.5,0.2c0.1,0.1,0.2,0.2,0.2,0.3c0,0.1,0,0.2,0,0.4l-1.2,6c0.3-0.7,0.8-1.5,1.5-2.3c0.7-0.8,1.6-1.6,2.6-2.3
			c1-0.7,2.2-1.3,3.4-1.8c1.2-0.5,2.5-0.7,3.9-0.7c1.4,0,2.6,0.2,3.5,0.6c0.9,0.4,1.7,1,2.3,1.7c0.6,0.7,1,1.5,1.2,2.4
			C298.2,166.9,298.3,167.8,298.3,168.8z"/>
		<path class="st2" d="M332.9,172c0,1.6-0.2,3.2-0.5,4.9c-0.3,1.7-0.8,3.2-1.4,4.8s-1.4,3-2.3,4.3c-0.9,1.3-2,2.5-3.2,3.5
			c-1.2,1-2.6,1.8-4.2,2.4s-3.3,0.9-5.1,0.9c-2,0-3.7-0.2-5.1-0.7s-2.6-1.2-3.5-2.1c-0.9-0.9-1.6-2.1-2-3.4
			c-0.4-1.3-0.6-2.9-0.6-4.5c0-1.6,0.1-3.2,0.5-4.9c0.3-1.7,0.8-3.2,1.4-4.8c0.6-1.5,1.4-3,2.3-4.3c0.9-1.4,2-2.5,3.2-3.5
			c1.2-1,2.6-1.8,4.2-2.4s3.3-0.9,5.1-0.9c2,0,3.7,0.2,5.1,0.7c1.4,0.5,2.6,1.2,3.5,2.1c0.9,0.9,1.6,2.1,2,3.4
			C332.7,168.8,332.9,170.3,332.9,172z M328.9,172.2c0-1.2-0.1-2.2-0.4-3.2s-0.7-1.7-1.3-2.4c-0.6-0.7-1.4-1.2-2.3-1.5
			c-0.9-0.4-2.1-0.5-3.4-0.5c-1.4,0-2.7,0.2-3.9,0.7c-1.1,0.5-2.2,1.1-3.1,2c-0.9,0.8-1.7,1.8-2.4,2.9s-1.2,2.3-1.7,3.6
			c-0.4,1.3-0.8,2.6-1,4c-0.2,1.4-0.3,2.7-0.3,4c0,1.2,0.1,2.2,0.4,3.2s0.7,1.7,1.3,2.4s1.4,1.2,2.3,1.5s2.1,0.5,3.4,0.5
			c1.4,0,2.7-0.2,3.9-0.7s2.2-1.1,3.1-2c0.9-0.8,1.7-1.8,2.4-2.9s1.2-2.3,1.7-3.6c0.4-1.3,0.8-2.6,1-3.9
			C328.7,174.8,328.9,173.5,328.9,172.2z"/>
		<path class="st2" d="M364.1,162.1c0,0.2,0,0.4-0.1,0.5c-0.1,0.2-0.1,0.3-0.2,0.5c-0.8,2.3-1.7,4.7-2.7,7.2c-1,2.4-2.1,4.9-3.4,7.3
			c-1.2,2.4-2.6,4.8-4.1,7.1c-1.5,2.3-3.1,4.6-4.9,6.8c-0.1,0.2-0.3,0.3-0.4,0.4c-0.1,0.1-0.3,0.2-0.5,0.3c-0.2,0.1-0.4,0.1-0.6,0.1
			s-0.5,0-0.8,0c-0.4,0-0.7,0-1,0c-0.2,0-0.4-0.1-0.6-0.1c-0.2-0.1-0.3-0.2-0.3-0.3s-0.1-0.2-0.1-0.4l-4.8-28.4c0-0.2,0-0.3,0-0.4
			s0-0.2,0-0.3c0-0.2,0-0.3,0.1-0.5c0.1-0.1,0.2-0.2,0.3-0.2c0.1-0.1,0.3-0.1,0.5-0.1c0.2,0,0.5,0,0.9,0c0.4,0,0.7,0,1,0
			c0.2,0,0.4,0.1,0.6,0.1c0.1,0.1,0.2,0.2,0.3,0.3c0.1,0.1,0.1,0.2,0.1,0.4l4.1,25.5v0.2l0.1-0.2c1.4-2,2.7-4,3.8-5.8
			c1.1-1.9,2.2-3.8,3.2-5.8c1-2,1.9-4.1,2.8-6.3c0.9-2.2,1.8-4.7,2.8-7.5c0-0.1,0.1-0.3,0.2-0.4c0.1-0.1,0.2-0.2,0.4-0.3
			s0.4-0.1,0.7-0.1s0.6,0,1,0c0.4,0,0.7,0,0.9,0s0.4,0.1,0.5,0.1c0.1,0,0.2,0.1,0.3,0.2C364.1,161.9,364.1,162,364.1,162.1z"/>
		<path class="st2" d="M389,191.5c-0.1,0.3-0.2,0.5-0.5,0.6c-0.3,0.1-0.8,0.2-1.4,0.2c-0.3,0-0.6,0-0.8,0s-0.4-0.1-0.5-0.1
			s-0.2-0.2-0.3-0.3s0-0.2,0-0.4l1.2-6c-0.3,0.7-0.8,1.5-1.5,2.3c-0.7,0.8-1.6,1.6-2.6,2.3c-1,0.7-2.2,1.3-3.4,1.8
			c-1.2,0.5-2.5,0.7-3.8,0.7c-1.7,0-3.2-0.3-4.3-0.9c-1.1-0.6-2-1.4-2.6-2.4s-1.1-2.1-1.3-3.3c-0.2-1.2-0.4-2.4-0.4-3.7
			c0-1.1,0.1-2.4,0.3-3.9c0.2-1.5,0.6-3,1.1-4.6c0.5-1.6,1.1-3.1,1.9-4.7c0.8-1.5,1.7-2.9,2.9-4.1c1.1-1.2,2.4-2.2,3.9-2.9
			c1.5-0.7,3.2-1.1,5.1-1.1c2,0,3.7,0.4,5,1.2s2.6,1.8,3.7,3.2l0.7-3.2c0.1-0.3,0.3-0.5,0.6-0.6c0.3-0.1,0.8-0.2,1.4-0.2
			c0.3,0,0.6,0,0.8,0c0.2,0,0.4,0.1,0.5,0.2s0.2,0.2,0.2,0.3c0,0.1,0,0.2,0,0.4L389,191.5z M389.7,169.4c-1.2-1.7-2.4-2.9-3.7-3.7
			c-1.3-0.8-2.8-1.2-4.4-1.2c-1.3,0-2.5,0.3-3.5,0.9c-1,0.6-2,1.4-2.8,2.4c-0.8,1-1.5,2.1-2,3.4c-0.6,1.3-1,2.6-1.4,3.9
			c-0.4,1.3-0.6,2.6-0.8,3.9c-0.2,1.3-0.3,2.4-0.3,3.4c0,0.8,0.1,1.6,0.2,2.5c0.1,0.8,0.4,1.6,0.8,2.3c0.4,0.7,0.9,1.3,1.6,1.7
			c0.7,0.4,1.5,0.7,2.6,0.7c1.3,0,2.6-0.3,3.9-1c1.3-0.7,2.5-1.7,3.7-2.9c1.1-1.3,2.1-2.7,3-4.5c0.9-1.7,1.5-3.6,1.9-5.7
			L389.7,169.4z"/>
		<path class="st2" d="M424.8,191.5c0,0.1-0.1,0.2-0.2,0.4c-0.1,0.1-0.2,0.2-0.4,0.3s-0.4,0.1-0.6,0.2c-0.3,0-0.6,0.1-0.9,0.1
			c-0.4,0-0.7,0-0.9-0.1s-0.4-0.1-0.6-0.2s-0.2-0.2-0.3-0.3s0-0.2,0-0.4l5.3-26.6h-16.1l-3.5,17.6c-0.1,0.5-0.2,1.1-0.2,1.7
			c-0.1,0.6-0.1,1.2-0.1,1.6c0,1.2,0.2,2.1,0.7,2.7c0.5,0.6,1.3,0.9,2.4,0.9c0.6,0,1.1-0.1,1.6-0.2c0.5-0.1,0.9-0.2,1.2-0.4
			c0.3-0.1,0.6-0.2,0.9-0.4s0.5-0.2,0.6-0.2c0.2,0,0.3,0.1,0.4,0.2s0.1,0.3,0.1,0.6c0,0.2,0,0.4-0.1,0.7s-0.1,0.5-0.2,0.7
			c-0.1,0.2-0.1,0.4-0.2,0.6s-0.2,0.3-0.3,0.5c-0.2,0.2-0.4,0.3-0.7,0.4s-0.7,0.2-1.1,0.4c-0.4,0.1-0.9,0.2-1.3,0.3
			s-0.9,0.1-1.3,0.1c-1.2,0-2.2-0.1-3-0.4c-0.8-0.2-1.5-0.6-2.1-1.2c-0.6-0.5-1-1.2-1.2-2s-0.4-1.7-0.4-2.8c0-0.3,0-0.5,0-0.9
			s0.1-0.6,0.1-1s0.1-0.7,0.2-1s0.1-0.7,0.2-1l3.5-17.6H402c-0.2,0-0.4-0.1-0.5-0.2c-0.1-0.1-0.2-0.4-0.2-0.7c0-0.3,0-0.6,0.1-0.8
			s0.1-0.5,0.2-0.8s0.2-0.4,0.4-0.5s0.4-0.2,0.6-0.2h4.3l1.5-7.2c0-0.1,0.1-0.2,0.2-0.4c0.1-0.1,0.2-0.2,0.4-0.3
			c0.2-0.1,0.4-0.1,0.6-0.2c0.2,0,0.6,0,1,0c0.4,0,0.7,0,0.9,0c0.2,0,0.4,0.1,0.6,0.2c0.1,0.1,0.2,0.2,0.2,0.3s0,0.2,0,0.4l-1.4,7.2
			h18.7c0.5,0,0.8,0.1,0.9,0.4s0.1,0.6,0,1L424.8,191.5z M433.2,152.6c-0.1,0.5-0.2,0.9-0.3,1.2c-0.1,0.3-0.3,0.6-0.6,0.8
			c-0.2,0.2-0.5,0.3-0.9,0.4c-0.3,0.1-0.8,0.1-1.3,0.1s-0.9,0-1.2-0.1s-0.5-0.2-0.7-0.4c-0.1-0.2-0.2-0.5-0.2-0.8
			c0-0.3,0-0.7,0.1-1.2c0.1-0.5,0.2-0.9,0.4-1.2s0.3-0.6,0.6-0.8s0.5-0.4,0.9-0.5c0.3-0.1,0.7-0.1,1.2-0.1s0.9,0,1.2,0.1
			c0.3,0.1,0.5,0.2,0.7,0.5c0.1,0.2,0.2,0.5,0.2,0.8S433.3,152.1,433.2,152.6z"/>
		<path class="st2" d="M463.7,172c0,1.6-0.2,3.2-0.5,4.9c-0.3,1.7-0.8,3.2-1.4,4.8c-0.6,1.5-1.4,3-2.3,4.3c-0.9,1.3-2,2.5-3.2,3.5
			c-1.2,1-2.6,1.8-4.2,2.4s-3.3,0.9-5.1,0.9c-2,0-3.7-0.2-5.1-0.7c-1.4-0.5-2.6-1.2-3.5-2.1s-1.6-2.1-2-3.4s-0.6-2.9-0.6-4.5
			c0-1.6,0.2-3.2,0.5-4.9c0.3-1.7,0.8-3.2,1.4-4.8c0.6-1.5,1.4-3,2.3-4.3c0.9-1.4,2-2.5,3.2-3.5s2.6-1.8,4.2-2.4s3.3-0.9,5.1-0.9
			c2,0,3.7,0.2,5.1,0.7c1.4,0.5,2.6,1.2,3.5,2.1c0.9,0.9,1.6,2.1,2,3.4C463.5,168.8,463.7,170.3,463.7,172z M459.6,172.2
			c0-1.2-0.1-2.2-0.4-3.2c-0.3-0.9-0.7-1.7-1.3-2.4s-1.4-1.2-2.3-1.5s-2.1-0.5-3.4-0.5c-1.4,0-2.7,0.2-3.9,0.7s-2.2,1.1-3.1,2
			s-1.7,1.8-2.4,2.9c-0.7,1.1-1.2,2.3-1.7,3.6c-0.4,1.3-0.8,2.6-1,4c-0.2,1.4-0.3,2.7-0.3,4c0,1.2,0.1,2.2,0.4,3.2
			c0.3,0.9,0.7,1.7,1.3,2.4c0.6,0.7,1.4,1.2,2.3,1.5c0.9,0.4,2.1,0.5,3.4,0.5c1.4,0,2.7-0.2,3.9-0.7c1.1-0.5,2.2-1.1,3.1-2
			s1.7-1.8,2.4-2.9c0.7-1.1,1.2-2.3,1.7-3.6c0.4-1.3,0.8-2.6,1-3.9C459.5,174.8,459.6,173.5,459.6,172.2z"/>
		<path class="st2" d="M495.9,168.8c0,0.8,0,1.5-0.1,2.2s-0.2,1.5-0.4,2.2l-3.6,18.3c0,0.1-0.1,0.2-0.2,0.4s-0.2,0.2-0.4,0.3
			s-0.4,0.1-0.6,0.2s-0.6,0.1-1,0.1c-0.4,0-0.7,0-0.9-0.1s-0.4-0.1-0.5-0.2s-0.2-0.2-0.3-0.3c0-0.1-0.1-0.2,0-0.4l3.7-18.3
			c0.1-0.8,0.3-1.5,0.3-2.1c0.1-0.7,0.1-1.2,0.1-1.7c0-1.5-0.3-2.7-1-3.6c-0.6-0.9-1.7-1.4-3.2-1.4c-1.3,0-2.6,0.4-3.9,1.1
			c-1.3,0.7-2.5,1.7-3.7,2.9c-1.1,1.3-2.1,2.8-3,4.5c-0.9,1.7-1.5,3.6-1.9,5.7l-2.5,12.9c0,0.1-0.1,0.2-0.2,0.4s-0.2,0.2-0.4,0.3
			s-0.4,0.1-0.6,0.2s-0.6,0.1-0.9,0.1c-0.4,0-0.7,0-0.9-0.1s-0.4-0.1-0.5-0.2s-0.2-0.2-0.3-0.3s0-0.2,0-0.4l5.9-29.2
			c0-0.1,0.1-0.2,0.1-0.4c0.1-0.1,0.2-0.2,0.3-0.3s0.3-0.1,0.6-0.2s0.5,0,0.8,0s0.6,0,0.8,0c0.2,0,0.4,0.1,0.5,0.2s0.2,0.2,0.2,0.3
			c0,0.1,0,0.2,0,0.4l-1.2,6c0.3-0.7,0.8-1.5,1.5-2.3c0.7-0.8,1.6-1.6,2.6-2.3c1-0.7,2.2-1.3,3.4-1.8c1.2-0.5,2.5-0.7,3.9-0.7
			c1.4,0,2.6,0.2,3.5,0.6c0.9,0.4,1.7,1,2.3,1.7s1,1.5,1.2,2.4S495.9,167.8,495.9,168.8z"/>
		<path class="st2" d="M543.1,187.5c-2.1,1.6-4.3,2.9-6.7,3.8c-2.4,0.9-4.8,1.4-7.3,1.4c-1.8,0-3.5-0.2-4.9-0.7
			c-1.4-0.4-2.6-1.1-3.6-1.9s-1.7-1.8-2.2-2.9c-0.5-1.1-0.7-2.4-0.7-3.7c0-1.3,0.2-2.6,0.7-3.9c0.4-1.3,1.1-2.6,2.1-3.9
			c0.9-1.3,2.2-2.5,3.6-3.6c1.5-1.2,3.2-2.3,5.3-3.3c-0.6-1.2-1.2-2.3-1.6-3.2s-0.7-1.9-0.9-2.7c-0.2-0.8-0.3-1.5-0.4-2.1
			s-0.1-1.1-0.1-1.6c0-0.7,0.1-1.5,0.3-2.3c0.2-0.8,0.5-1.6,0.9-2.4c0.4-0.8,0.9-1.5,1.6-2.2s1.4-1.3,2.4-1.9c0.9-0.5,2-1,3.2-1.3
			s2.6-0.5,4.2-0.5c1.8,0,3.4,0.2,4.6,0.6c1.2,0.4,2.2,1,2.9,1.6s1.3,1.4,1.6,2.2c0.3,0.8,0.5,1.6,0.5,2.4c0,1.3-0.2,2.5-0.6,3.6
			s-1.2,2.3-2.2,3.4c-1.1,1.1-2.5,2.3-4.3,3.5c-1.8,1.2-4.1,2.5-6.9,3.8c0.8,1.3,1.5,2.5,2.2,3.6c0.7,1.1,1.5,2.1,2.2,3.1
			c0.7,1,1.5,2,2.3,2.9c0.8,1,1.6,1.9,2.5,3c1.4-1.5,2.5-3.1,3.4-4.8c0.9-1.6,1.5-3.1,1.9-4.5c0.4-1.3,0.6-2.2,0.6-2.6
			s0.1-0.7,0.2-0.8c0.1-0.2,0.2-0.3,0.4-0.4s0.4-0.1,0.6-0.2s0.6,0,1,0c0.8,0,1.3,0.1,1.5,0.2s0.3,0.3,0.3,0.5s-0.1,0.8-0.3,1.7
			c-0.2,0.9-0.5,1.9-0.8,3c-0.4,1.1-0.8,2.2-1.4,3.4c-0.6,1.2-1.3,2.3-2.1,3.5c-0.8,1.2-1.8,2.3-2.8,3.4c1.6,1.5,2.9,2.6,3.9,3.3
			c1,0.7,1.8,1,2.6,1c0.5,0,0.7,0.1,0.9,0.2s0.2,0.3,0.2,0.6c0,0.1,0,0.3,0,0.5c0,0.2-0.1,0.4-0.1,0.7s-0.1,0.4-0.2,0.7
			s-0.2,0.4-0.3,0.5s-0.3,0.2-0.7,0.3c-0.3,0.1-0.6,0.1-0.9,0.1c-0.4,0-0.9-0.1-1.4-0.3s-1.1-0.5-1.7-0.9c-0.6-0.4-1.4-0.9-2.2-1.6
			C545.1,189.3,544.2,188.4,543.1,187.5z M530.9,171.7c-1.4,0.7-2.7,1.5-3.8,2.3c-1.1,0.8-2.1,1.7-2.8,2.6c-0.8,0.9-1.4,1.9-1.8,3
			s-0.6,2.2-0.6,3.5c0,0.8,0.1,1.5,0.4,2.3c0.2,0.8,0.7,1.4,1.3,2s1.4,1,2.4,1.4c1,0.4,2.3,0.5,3.8,0.5c1,0,1.9-0.1,2.9-0.3
			s2-0.5,2.9-0.9s1.9-0.8,2.7-1.3c0.9-0.5,1.7-1.1,2.4-1.7c-1-1.1-1.9-2.1-2.7-3.2c-0.8-1-1.7-2.1-2.5-3.2s-1.6-2.2-2.4-3.3
			C532.4,174.2,531.6,173,530.9,171.7z M532.8,167c2.4-1.2,4.4-2.2,5.9-3.2c1.5-1,2.7-1.9,3.5-2.8c0.8-0.9,1.4-1.7,1.7-2.5
			c0.3-0.8,0.4-1.6,0.4-2.5c0-0.4-0.1-0.8-0.2-1.2c-0.2-0.5-0.4-0.9-0.9-1.3c-0.4-0.4-1-0.8-1.7-1c-0.7-0.3-1.7-0.4-2.9-0.4
			c-1.6,0-2.9,0.2-4,0.7c-1.1,0.5-1.9,1.1-2.5,1.8c-0.6,0.7-1.1,1.4-1.3,2.2c-0.3,0.8-0.4,1.5-0.4,2.2c0,0.5,0,1,0.1,1.5
			s0.2,1.1,0.3,1.8c0.2,0.7,0.4,1.4,0.7,2.2S532.3,166,532.8,167z"/>
		<path class="st2" d="M603,153.6c0,0.2,0,0.3,0,0.5s-0.1,0.3-0.1,0.5c0,0.2-0.1,0.4-0.2,0.5c-0.1,0.2-0.1,0.3-0.2,0.5
			s-0.2,0.3-0.3,0.3c-0.1,0.1-0.3,0.1-0.4,0.1c-0.2,0-0.5-0.1-0.9-0.4s-0.9-0.6-1.6-0.9s-1.4-0.6-2.3-0.9c-0.9-0.3-2-0.4-3.2-0.4
			c-1.4,0-2.6,0.2-3.7,0.7c-1.1,0.4-2,1-2.7,1.8s-1.3,1.6-1.7,2.6c-0.4,1-0.6,2-0.6,3c0,1,0.2,1.9,0.6,2.7c0.4,0.8,1,1.5,1.7,2.1
			c0.7,0.6,1.5,1.2,2.4,1.7s1.8,1.1,2.7,1.6c0.9,0.6,1.9,1.1,2.8,1.8c0.9,0.6,1.7,1.3,2.4,2.1c0.7,0.8,1.3,1.7,1.7,2.8
			c0.4,1,0.6,2.2,0.6,3.6c0,1.7-0.4,3.3-1.1,4.9c-0.7,1.5-1.7,2.9-3,4c-1.3,1.1-2.9,2.1-4.8,2.7c-1.9,0.7-4,1-6.3,1
			c-1.2,0-2.4-0.1-3.5-0.3c-1.1-0.2-2.1-0.5-3-0.8c-0.9-0.3-1.6-0.7-2.3-1c-0.6-0.4-1.1-0.7-1.3-0.9s-0.4-0.6-0.4-1.1
			c0-0.1,0-0.3,0-0.4c0-0.2,0.1-0.4,0.1-0.6c0.1-0.2,0.1-0.4,0.2-0.6s0.1-0.4,0.2-0.5s0.2-0.3,0.3-0.4s0.3-0.1,0.4-0.1
			c0.3,0,0.8,0.2,1.3,0.5c0.5,0.3,1.2,0.7,1.9,1.1s1.7,0.8,2.7,1.1s2.3,0.5,3.7,0.5c1.6,0,3.1-0.2,4.4-0.7s2.4-1.1,3.3-1.9
			c0.9-0.8,1.6-1.8,2.1-2.8s0.7-2.2,0.7-3.4c0-1.1-0.2-2-0.6-2.8c-0.4-0.8-1-1.5-1.7-2.1s-1.5-1.2-2.4-1.7c-0.9-0.5-1.8-1.1-2.7-1.6
			c-0.9-0.5-1.8-1.1-2.7-1.7s-1.7-1.3-2.4-2.1c-0.7-0.8-1.2-1.7-1.7-2.8s-0.6-2.3-0.6-3.7c0-1.5,0.3-3,0.9-4.4s1.5-2.7,2.6-3.7
			c1.1-1.1,2.5-2,4.2-2.6c1.6-0.6,3.5-1,5.6-1c1,0,2,0.1,2.9,0.3c0.9,0.2,1.7,0.4,2.5,0.6c0.7,0.2,1.4,0.5,1.9,0.8s0.9,0.5,1.1,0.7
			s0.3,0.4,0.4,0.6S603,153.3,603,153.6z"/>
		<path class="st2" d="M632.3,168.1c0,1.4-0.3,2.7-1,3.9s-1.7,2.1-3.2,2.9c-1.5,0.8-3.3,1.4-5.6,1.9c-2.3,0.4-5,0.7-8.2,0.7h-3.7
			c-0.2,0.8-0.3,1.6-0.3,2.4c-0.1,0.8-0.1,1.5-0.1,2.2c0,2.4,0.6,4.2,1.7,5.5c1.1,1.3,3,1.9,5.6,1.9c1.4,0,2.6-0.1,3.6-0.3
			s2-0.4,2.8-0.7s1.4-0.5,1.9-0.7c0.5-0.2,0.8-0.3,1-0.3s0.3,0.1,0.4,0.2c0.1,0.1,0.1,0.3,0.1,0.5c0,0.1,0,0.3,0,0.5
			c0,0.2-0.1,0.4-0.1,0.6s-0.2,0.5-0.3,0.7s-0.2,0.4-0.4,0.6c-0.3,0.3-0.7,0.5-1.3,0.8c-0.6,0.2-1.4,0.5-2.2,0.7
			c-0.9,0.2-1.8,0.4-2.8,0.5c-1,0.1-2,0.2-3,0.2c-1.8,0-3.5-0.2-4.8-0.7c-1.4-0.4-2.5-1.1-3.4-2c-0.9-0.9-1.6-2-2-3.3
			c-0.5-1.3-0.7-2.9-0.7-4.6c0-1.4,0.1-2.9,0.4-4.4c0.3-1.6,0.7-3.1,1.3-4.7c0.6-1.6,1.3-3,2.2-4.5c0.9-1.4,2-2.7,3.2-3.8
			c1.2-1.1,2.7-2,4.3-2.6c1.6-0.7,3.5-1,5.5-1c1.7,0,3.1,0.2,4.3,0.7c1.2,0.4,2.1,1,2.9,1.7c0.7,0.7,1.3,1.4,1.6,2.2
			C632.2,166.6,632.3,167.3,632.3,168.1z M628.3,168.5c0-1.2-0.5-2.2-1.5-2.9s-2.3-1.1-4.1-1.1c-1.5,0-2.9,0.3-4.1,0.8
			s-2.3,1.3-3.2,2.2c-0.9,0.9-1.7,1.9-2.4,3.1s-1.2,2.4-1.6,3.8h3.6c2.6,0,4.7-0.2,6.4-0.5c1.7-0.3,3.1-0.7,4.1-1.3
			c1-0.5,1.7-1.2,2.2-1.9C628.1,170,628.3,169.3,628.3,168.5z"/>
		<path class="st2" d="M658.1,162.6c0,0.1,0,0.2,0,0.4s0,0.4-0.1,0.6s-0.1,0.4-0.1,0.7s-0.1,0.5-0.2,0.6s-0.2,0.4-0.3,0.5
			s-0.2,0.2-0.4,0.2s-0.3,0-0.5-0.1s-0.4-0.2-0.7-0.3s-0.6-0.2-0.9-0.3c-0.3-0.1-0.7-0.1-1.2-0.1c-0.8,0-1.6,0.3-2.7,1
			c-1,0.7-2,1.6-3.1,2.9c-1,1.2-2,2.7-2.8,4.4c-0.8,1.7-1.5,3.6-1.9,5.6l-2.5,12.9c0,0.1-0.1,0.2-0.2,0.4s-0.2,0.2-0.4,0.3
			s-0.4,0.1-0.6,0.2s-0.6,0.1-0.9,0.1c-0.4,0-0.7,0-0.9-0.1s-0.4-0.1-0.5-0.2s-0.2-0.2-0.3-0.3s0-0.2,0-0.4l5.8-29.2
			c0-0.1,0.1-0.2,0.2-0.4c0.1-0.1,0.2-0.2,0.4-0.3s0.4-0.1,0.6-0.2s0.5,0,0.8,0s0.6,0,0.8,0c0.2,0,0.4,0.1,0.5,0.2s0.2,0.2,0.2,0.3
			c0,0.1,0,0.2,0,0.4L645,168c0.5-0.9,1.1-1.7,1.7-2.6c0.7-0.8,1.4-1.6,2.2-2.2c0.8-0.6,1.7-1.1,2.5-1.5c0.9-0.4,1.8-0.6,2.7-0.6
			c0.4,0,0.8,0,1.2,0.1s0.8,0.1,1.1,0.2s0.6,0.2,0.9,0.3c0.3,0.1,0.5,0.2,0.6,0.4C658.1,162.2,658.1,162.4,658.1,162.6z"/>
		<path class="st2" d="M686,162.1c0,0.2,0,0.4-0.1,0.5c-0.1,0.2-0.1,0.3-0.2,0.5c-0.8,2.3-1.7,4.7-2.7,7.2c-1,2.4-2.1,4.9-3.4,7.3
			c-1.2,2.4-2.6,4.8-4.1,7.1c-1.5,2.3-3.1,4.6-4.9,6.8c-0.1,0.2-0.3,0.3-0.4,0.4c-0.1,0.1-0.3,0.2-0.5,0.3s-0.4,0.1-0.6,0.1
			s-0.5,0-0.8,0c-0.4,0-0.7,0-1,0s-0.4-0.1-0.6-0.1s-0.3-0.2-0.3-0.3c-0.1-0.1-0.1-0.2-0.1-0.4l-4.8-28.4c0-0.2,0-0.3,0-0.4
			c0-0.1,0-0.2,0-0.3c0-0.2,0-0.3,0.1-0.5c0.1-0.1,0.2-0.2,0.3-0.2c0.1-0.1,0.3-0.1,0.5-0.1c0.2,0,0.5,0,0.9,0c0.4,0,0.7,0,1,0
			s0.4,0.1,0.6,0.1s0.2,0.2,0.3,0.3c0.1,0.1,0.1,0.2,0.1,0.4l4.1,25.5v0.2l0.1-0.2c1.4-2,2.7-4,3.8-5.8c1.1-1.9,2.2-3.8,3.2-5.8
			c1-2,1.9-4.1,2.8-6.3c0.9-2.2,1.8-4.7,2.8-7.5c0-0.1,0.1-0.3,0.2-0.4c0.1-0.1,0.2-0.2,0.4-0.3c0.2-0.1,0.4-0.1,0.7-0.1s0.6,0,1,0
			c0.4,0,0.7,0,0.9,0s0.4,0.1,0.5,0.1c0.1,0,0.2,0.1,0.3,0.2C686,161.9,686,162,686,162.1z"/>
		<path class="st2" d="M692.1,191.5c0,0.1-0.1,0.2-0.2,0.4s-0.2,0.2-0.4,0.3s-0.4,0.1-0.6,0.2s-0.6,0.1-0.9,0.1
			c-0.4,0-0.7,0-0.9-0.1s-0.4-0.1-0.5-0.2s-0.2-0.2-0.3-0.3s0-0.2,0-0.4l5.8-29.2c0-0.1,0.1-0.2,0.1-0.4c0.1-0.1,0.2-0.2,0.4-0.3
			s0.4-0.1,0.6-0.2s0.6,0,1,0c0.4,0,0.7,0,0.9,0c0.2,0,0.4,0.1,0.5,0.2s0.2,0.2,0.2,0.3c0,0.1,0,0.2,0,0.4L692.1,191.5z
			 M700.5,152.6c-0.1,0.5-0.2,0.9-0.3,1.2c-0.1,0.3-0.3,0.6-0.6,0.8c-0.2,0.2-0.5,0.3-0.9,0.4s-0.8,0.1-1.3,0.1
			c-0.5,0-0.9,0-1.2-0.1s-0.5-0.2-0.7-0.4c-0.1-0.2-0.2-0.5-0.2-0.8c0-0.3,0-0.7,0.1-1.2c0.1-0.5,0.2-0.9,0.4-1.2s0.3-0.6,0.6-0.8
			s0.5-0.4,0.9-0.5c0.3-0.1,0.8-0.1,1.3-0.1s0.9,0,1.2,0.1s0.5,0.2,0.7,0.5s0.2,0.5,0.2,0.8S700.6,152.1,700.5,152.6z"/>
		<path class="st2" d="M727.8,165.3c0,0.3,0,0.6-0.1,0.9c-0.1,0.3-0.1,0.6-0.2,0.8s-0.2,0.4-0.4,0.6s-0.4,0.2-0.6,0.2
			c-0.3,0-0.6-0.2-0.9-0.5c-0.3-0.3-0.8-0.7-1.4-1.1c-0.6-0.4-1.3-0.8-2.2-1.1s-2-0.5-3.4-0.5c-1.5,0-2.8,0.3-4,0.9s-2.2,1.4-3,2.4
			s-1.6,2.1-2.1,3.3c-0.6,1.2-1,2.5-1.4,3.8c-0.3,1.3-0.6,2.5-0.7,3.7c-0.2,1.2-0.2,2.2-0.2,3.1c0,2.5,0.5,4.4,1.6,5.6
			s2.7,1.9,4.7,1.9c1.5,0,2.8-0.2,3.8-0.6c1.1-0.4,2-0.8,2.7-1.3c0.7-0.5,1.3-0.9,1.8-1.3c0.5-0.4,0.9-0.6,1.2-0.6
			c0.2,0,0.3,0.1,0.4,0.2s0.1,0.3,0.1,0.6c0,0.2,0,0.4,0,0.7s-0.1,0.5-0.1,0.8c-0.1,0.3-0.2,0.5-0.3,0.8s-0.3,0.5-0.5,0.7
			s-0.7,0.6-1.4,1c-0.7,0.4-1.4,0.8-2.3,1.1s-1.8,0.6-2.8,0.8c-1,0.2-2.1,0.3-3.1,0.3c-3.3,0-5.8-0.9-7.5-2.6
			c-1.6-1.7-2.5-4.3-2.5-7.7c0-1.3,0.1-2.7,0.3-4.3c0.2-1.6,0.6-3.1,1.1-4.7c0.5-1.6,1.2-3.1,2-4.6c0.8-1.5,1.8-2.8,3-3.9
			c1.2-1.1,2.6-2.1,4.1-2.8c1.6-0.7,3.4-1,5.4-1c0.8,0,1.7,0.1,2.4,0.2c0.8,0.1,1.5,0.3,2.2,0.6c0.7,0.2,1.3,0.6,1.9,0.9
			s1.1,0.7,1.4,1c0.3,0.3,0.5,0.6,0.6,0.7C727.7,164.8,727.8,165.1,727.8,165.3z"/>
		<path class="st2" d="M756.7,168.1c0,1.4-0.3,2.7-1,3.9s-1.7,2.1-3.2,2.9c-1.5,0.8-3.3,1.4-5.6,1.9c-2.3,0.4-5,0.7-8.2,0.7h-3.7
			c-0.2,0.8-0.3,1.6-0.3,2.4c-0.1,0.8-0.1,1.5-0.1,2.2c0,2.4,0.6,4.2,1.7,5.5c1.1,1.3,3,1.9,5.6,1.9c1.4,0,2.6-0.1,3.6-0.3
			s2-0.4,2.8-0.7s1.4-0.5,1.9-0.7c0.5-0.2,0.8-0.3,1-0.3s0.3,0.1,0.4,0.2c0.1,0.1,0.1,0.3,0.1,0.5c0,0.1,0,0.3,0,0.5
			c0,0.2-0.1,0.4-0.1,0.6s-0.2,0.5-0.3,0.7s-0.2,0.4-0.4,0.6c-0.3,0.3-0.7,0.5-1.3,0.8c-0.6,0.2-1.4,0.5-2.2,0.7
			c-0.9,0.2-1.8,0.4-2.8,0.5c-1,0.1-2,0.2-3,0.2c-1.8,0-3.5-0.2-4.8-0.7c-1.4-0.4-2.5-1.1-3.4-2c-0.9-0.9-1.6-2-2-3.3
			c-0.5-1.3-0.7-2.9-0.7-4.6c0-1.4,0.1-2.9,0.4-4.4c0.3-1.6,0.7-3.1,1.3-4.7c0.6-1.6,1.3-3,2.2-4.5c0.9-1.4,2-2.7,3.2-3.8
			c1.2-1.1,2.7-2,4.3-2.6c1.6-0.7,3.5-1,5.5-1c1.7,0,3.1,0.2,4.3,0.7c1.2,0.4,2.1,1,2.9,1.7c0.7,0.7,1.3,1.4,1.6,2.2
			C756.5,166.6,756.7,167.3,756.7,168.1z M752.6,168.5c0-1.2-0.5-2.2-1.5-2.9s-2.3-1.1-4.1-1.1c-1.5,0-2.9,0.3-4.1,0.8
			s-2.3,1.3-3.2,2.2c-0.9,0.9-1.7,1.9-2.4,3.1s-1.2,2.4-1.6,3.8h3.6c2.6,0,4.7-0.2,6.4-0.5c1.7-0.3,3.1-0.7,4.1-1.3
			c1-0.5,1.7-1.2,2.2-1.9C752.4,170,752.6,169.3,752.6,168.5z"/>
	</g>
</g>
</svg>
