<svg width="96" height="96" xmlns="http://www.w3.org/2000/svg" xmlns:xlink="http://www.w3.org/1999/xlink" xml:space="preserve" overflow="hidden"><defs><clipPath id="clip0"><rect x="275" y="379" width="96" height="96"/></clipPath></defs><g clip-path="url(#clip0)" transform="translate(-275 -379)"><path d="M298 461 298 393 323 393 323 414 348 414 348 461 298 461ZM329 395.5 341.5 408 329 408 329 395.5ZM329 387 292 387 292 467 354 467 354 409 329 387Z" fill="#315064"/><path d="M304 424 342 424 342 428 304 428Z" fill="#315064"/><path d="M304 416 317 416 317 420 304 420Z" fill="#315064"/><path d="M304 432 342 432 342 436 304 436Z" fill="#315064"/><path d="M304 440 342 440 342 444 304 444Z" fill="#315064"/><path d="M304 448 342 448 342 452 304 452Z" fill="#315064"/></g></svg>